<?xml version="1.0" encoding="UTF-8"?>
<svg id="Ebene_1" data-name="Ebene 1" xmlns="http://www.w3.org/2000/svg" viewBox="0 0 1406.77 708.66">
  <defs>
    <style>
      .cls-1 {
        fill: #fff;
      }

      .cls-2 {
        fill: #5db230;
      }
    </style>
  </defs>
  <path class="cls-2" d="m0,275.5v180.55h412.44v-206.24h80.43c51.34,0,136.9,8.56,214.78,25.68,90.7,19.67,171.15,52.17,171.15,98.4,0,38.49-59.9,82.15-61.61,82.15h589.57s-14.55-65.04-45.36-107.82c-19.67-28.22-44.48-53.04-82.13-72.71-32.53-17.13-74.46-30.81-131.78-40.24v-9.42c26.53,0,97.55-25.66,159.15-66.71C1389.63,103.49,1405.03,0,1405.03,0h-583.58s48.79,40.21,48.79,76.99c0,77.01-275.51,135.2-375.64,135.2h-82.13V0H0v275.5h0Z"/>
  <polygon points="3.55 618.9 3.55 489.92 73.5 489.92 73.5 559.47 135.38 489.92 217.46 489.92 139.42 570.79 170.56 618.91 225.95 704.23 141.86 704.23 90.09 618.91 73.51 636.29 73.51 704.23 3.56 704.23 3.56 618.9 3.55 618.9"/>
  <path d="m243.36,618.9c33.15-13.34,81.69-5.66,81.69-25.08,0-11.32-13.74-12.54-20.22-12.54-8.89,0-20.22,1.61-21.83,14.96h-59.45c0-33.15,23.45-52.16,84.92-52.16,73.99,0,78.44,27.09,78.44,64.29v73.19c0,8.9.41,13.34,8.5,19.81v2.82h-64.29l-2.83-16.58c-17.39,16.58-35.58,21.02-58.64,21.02-29.52,0-55.8-14.55-55.8-46.89-.02-23.83,12.93-35.97,29.51-42.85h0Z"/>
  <polygon points="403.5 618.9 380.04 548.53 440.28 548.53 457.68 618.9 464.14 644.78 471.01 618.9 488.82 548.53 541.39 548.53 558.76 618.9 565.24 644.78 571.71 618.9 589.91 548.53 648.55 548.53 625.89 618.9 598.8 704.22 538.55 704.22 515.89 618.9 514.27 612.83 512.66 618.9 492.04 704.22 431.39 704.22 403.5 618.9"/>
  <path d="m659.85,618.9c32.76-13.34,81.28-5.66,81.28-25.08,0-11.32-13.33-12.54-20.22-12.54-8.48,0-20.22,1.61-21.43,14.96h-59.85c0-33.15,23.87-52.16,85.33-52.16,73.6,0,78.04,27.09,78.04,64.29v73.19c0,8.9.4,13.34,8.5,19.81v2.82h-63.91l-3.23-16.58c-17.38,16.58-35.19,21.02-58.64,21.02-29.11,0-55.41-14.55-55.41-46.89.02-23.83,12.57-35.97,29.54-42.85h0Z"/>
  <path d="m820.4,618.9c-4.45-6.07-6.87-13.75-6.87-23.47,0-40.03,41.26-51.35,74-51.35s73.59,7.69,77.23,48.93h-56.22c-.8-5.26-2.82-8.5-6.06-11.32-3.23-2.83-7.69-4.04-12.53-4.04-10.51,0-17.38,3.64-17.38,11.33,0,15.36,48.92,12.54,77.64,29.92,12.13,7.27,20.62,18.2,20.62,35.58,0,32.35-26.69,54.18-83.72,54.18-35.58,0-75.21-10.92-78.44-52.95h59.03c0,6.46,2.42,11.3,6.46,14.56,4.04,2.81,9.3,4.44,15.36,4.44,9.3,0,19.41-2.83,19.41-13.76.03-21.01-67.1-10.51-88.54-42.05h0Z"/>
  <path d="m1002.79,618.9c32.75-13.34,81.27-5.66,81.27-25.08,0-11.32-13.76-12.54-20.21-12.54-8.51,0-20.24,1.61-21.83,14.96h-59.44c0-33.15,23.45-52.16,85.32-52.16,73.6,0,78.04,27.09,78.04,64.29v73.19c0,8.9.41,13.34,8.5,19.81v2.82h-64.3l-2.83-16.58c-17.39,16.58-35.18,21.02-58.64,21.02-29.52,0-55.81-14.55-55.81-46.89-.01-23.83,12.94-35.97,29.93-42.85h0Z"/>
  <polygon points="1158.06 618.9 1158.06 489.92 1219.93 489.92 1219.93 595.86 1259.56 548.54 1331.95 548.54 1274.11 608.79 1281 618.91 1339.64 704.23 1265.22 704.23 1231.65 648.83 1219.91 660.56 1219.91 704.23 1158.05 704.23 1158.05 618.9 1158.06 618.9"/>
  <polygon points="1343.26 548.54 1343.26 618.91 1343.26 704.23 1405.13 704.23 1405.13 618.91 1405.13 548.54 1343.26 548.54"/>
  <polygon points="1343.26 484.25 1343.26 528.33 1405.13 528.33 1405.13 484.25 1343.26 484.25"/>
  <path class="cls-1" d="m1084.04,635.47c-20.21,9.72-46.89,4.85-46.89,25.08,0,7.69,7.26,12.94,19.41,12.94,21.84.01,29.11-16.98,27.48-38.02h0Z"/>
  <path class="cls-1" d="m741.13,635.47c-20.22,9.72-46.89,4.85-46.89,25.08,0,7.69,7.26,12.94,19.81,12.94,21.43.01,28.71-16.98,27.08-38.02h0Z"/>
  <path class="cls-1" d="m325.03,635.47c-20.22,9.72-46.91,4.85-46.91,25.08,0,7.69,7.29,12.94,19.41,12.94,21.84.01,29.12-16.98,27.5-38.02h0Z"/>
</svg>